<svg xmlns="http://www.w3.org/2000/svg" xmlns:xlink="http://www.w3.org/1999/xlink" width="500" zoomAndPan="magnify" viewBox="0 0 375 374.999991" height="500" preserveAspectRatio="xMidYMid meet" version="1.0"><defs><g/><clipPath id="19e7f5a097"><path d="M 116 130 L 272 130 L 272 222.832031 L 116 222.832031 Z M 116 130 " clip-rule="nonzero"/></clipPath><clipPath id="086cf105cb"><path d="M 103 74.332031 L 259 74.332031 L 259 168 L 103 168 Z M 103 74.332031 " clip-rule="nonzero"/></clipPath></defs><g clip-path="url(#19e7f5a097)"><path fill="#0192d7" d="M 145.078125 166.4375 C 132.589844 166.4375 128.363281 160.652344 128.4375 155 C 128.609375 142.785156 139.808594 142.894531 148.550781 146.234375 C 156.460938 149.238281 166.125 154.964844 176.652344 161.011719 C 188.828125 168.003906 207.691406 179.082031 225.625 183.511719 C 242.078125 187.570312 258.496094 186.128906 266.949219 169.695312 C 273.097656 157.734375 272.34375 142.480469 267.414062 131.699219 C 268.574219 150.492188 264.96875 164.503906 253.839844 170.972656 C 242.664062 177.472656 230.671875 175.132812 219.59375 170.003906 C 201.675781 161.695312 180.070312 145 162.195312 136.109375 C 156.082031 133.058594 148.664062 130.339844 141.519531 130.113281 C 108.511719 129.078125 106.777344 180.386719 145.078125 180.386719 L 156.757812 180.386719 L 156.757812 192.078125 C 156.757812 208.980469 170.578125 222.816406 187.460938 222.816406 C 204.34375 222.816406 218.15625 208.980469 218.15625 192.078125 L 218.15625 185.617188 C 213.445312 184.113281 208.796875 182.277344 204.21875 180.226562 L 204.21875 192.078125 C 204.21875 201.277344 196.648438 208.855469 187.460938 208.855469 C 178.261719 208.855469 170.691406 201.277344 170.691406 192.078125 L 170.691406 166.4375 Z M 145.078125 166.4375 " fill-opacity="1" fill-rule="evenodd"/></g><g clip-path="url(#086cf105cb)"><path fill="#90c024" d="M 229.835938 130.707031 C 242.332031 130.707031 246.546875 136.496094 246.476562 142.148438 C 246.304688 154.359375 235.101562 154.242188 226.363281 150.914062 C 218.460938 147.898438 208.785156 142.183594 198.257812 136.136719 C 186.085938 129.140625 167.222656 118.0625 149.296875 113.636719 C 132.832031 109.578125 116.417969 111.015625 107.964844 127.441406 C 101.816406 139.410156 102.570312 154.65625 107.496094 165.449219 C 106.335938 146.65625 109.941406 132.644531 121.074219 126.164062 C 132.25 119.664062 144.242188 122.015625 155.320312 127.144531 C 173.238281 135.453125 194.84375 152.136719 212.714844 161.039062 C 218.828125 164.089844 226.246094 166.796875 233.394531 167.023438 C 266.398438 168.066406 268.132812 116.757812 229.835938 116.757812 L 218.15625 116.757812 L 218.15625 105.058594 C 218.15625 88.15625 204.34375 74.332031 187.460938 74.332031 C 170.578125 74.332031 156.757812 88.15625 156.757812 105.058594 L 156.757812 111.53125 C 161.46875 113.03125 166.117188 114.867188 170.691406 116.921875 L 170.691406 105.058594 C 170.691406 95.859375 178.261719 88.28125 187.460938 88.28125 C 196.648438 88.28125 204.21875 95.859375 204.21875 105.058594 L 204.21875 130.707031 Z M 229.835938 130.707031 " fill-opacity="1" fill-rule="evenodd"/></g><g fill="#000000" fill-opacity="1"><g transform="translate(75.141786, 274.813386)"><g><path d="M 3.359375 -28 L 24.6875 -28 L 24.6875 -22.40625 L 9.515625 -22.40625 L 9.515625 -16.4375 L 22.875 -16.4375 L 22.875 -10.84375 L 9.515625 -10.84375 L 9.515625 0 L 3.359375 0 Z M 3.359375 -28 "/></g></g></g><g fill="#000000" fill-opacity="1"><g transform="translate(101.379184, 274.813386)"><g><path d="M 12.953125 -28.203125 L 18.640625 -28.203125 L 30.640625 0 L 24.203125 0 L 21.640625 -6.28125 L 9.796875 -6.28125 L 7.234375 0 L 0.953125 0 Z M 19.4375 -11.71875 L 15.71875 -20.796875 L 12 -11.71875 Z M 19.4375 -11.71875 "/></g></g></g><g fill="#000000" fill-opacity="1"><g transform="translate(132.976045, 274.813386)"><g><path d="M 3.359375 -28 L 16.15625 -28 C 19.707031 -28 22.425781 -27.050781 24.3125 -25.15625 C 25.914062 -23.5625 26.71875 -21.429688 26.71875 -18.765625 L 26.71875 -18.6875 C 26.71875 -16.414062 26.164062 -14.566406 25.0625 -13.140625 C 23.957031 -11.710938 22.507812 -10.664062 20.71875 -10 L 27.5625 0 L 20.359375 0 L 14.359375 -8.953125 L 9.515625 -8.953125 L 9.515625 0 L 3.359375 0 Z M 15.765625 -14.40625 C 17.285156 -14.40625 18.453125 -14.765625 19.265625 -15.484375 C 20.078125 -16.203125 20.484375 -17.160156 20.484375 -18.359375 L 20.484375 -18.4375 C 20.484375 -19.769531 20.054688 -20.769531 19.203125 -21.4375 C 18.347656 -22.101562 17.160156 -22.4375 15.640625 -22.4375 L 9.515625 -22.4375 L 9.515625 -14.40625 Z M 15.765625 -14.40625 "/></g></g></g><g fill="#000000" fill-opacity="1"><g transform="translate(161.893169, 274.813386)"><g><path d="M 3.359375 -28 L 10 -28 L 17.359375 -16.15625 L 24.71875 -28 L 31.359375 -28 L 31.359375 0 L 25.234375 0 L 25.234375 -18.28125 L 17.359375 -6.3125 L 17.203125 -6.3125 L 9.40625 -18.15625 L 9.40625 0 L 3.359375 0 Z M 3.359375 -28 "/></g></g></g><g fill="#000000" fill-opacity="1"><g transform="translate(196.609723, 274.813386)"><g/></g></g><g fill="#000000" fill-opacity="1"><g transform="translate(208.608532, 274.813386)"><g><path d="M 3.359375 -28 L 9.515625 -28 L 9.515625 -5.59375 L 23.484375 -5.59375 L 23.484375 0 L 3.359375 0 Z M 3.359375 -28 "/></g></g></g><g fill="#000000" fill-opacity="1"><g transform="translate(233.366073, 274.813386)"><g><path d="M 3.640625 -28 L 9.796875 -28 L 9.796875 0 L 3.640625 0 Z M 3.640625 -28 "/></g></g></g><g fill="#000000" fill-opacity="1"><g transform="translate(246.804743, 274.813386)"><g><path d="M 3.359375 -28 L 24.6875 -28 L 24.6875 -22.40625 L 9.515625 -22.40625 L 9.515625 -16.4375 L 22.875 -16.4375 L 22.875 -10.84375 L 9.515625 -10.84375 L 9.515625 0 L 3.359375 0 Z M 3.359375 -28 "/></g></g></g><g fill="#000000" fill-opacity="1"><g transform="translate(273.042141, 274.813386)"><g><path d="M 3.359375 -28 L 24.484375 -28 L 24.484375 -22.515625 L 9.484375 -22.515625 L 9.484375 -16.84375 L 22.6875 -16.84375 L 22.6875 -11.359375 L 9.484375 -11.359375 L 9.484375 -5.484375 L 24.6875 -5.484375 L 24.6875 0 L 3.359375 0 Z M 3.359375 -28 "/></g></g></g><g fill="#000000" fill-opacity="1"><g transform="translate(113.739212, 292.478302)"><g><path d="M 1.34375 -9.5 L 2.421875 -9.5 L 2.421875 -5.28125 L 7.90625 -5.28125 L 7.90625 -9.5 L 8.96875 -9.5 L 8.96875 0 L 7.90625 0 L 7.90625 -4.28125 L 2.421875 -4.28125 L 2.421875 0 L 1.34375 0 Z M 1.34375 -9.5 "/></g></g></g><g fill="#000000" fill-opacity="1"><g transform="translate(126.42598, 292.478302)"><g><path d="M 1.34375 -9.5 L 8.21875 -9.5 L 8.21875 -8.53125 L 2.421875 -8.53125 L 2.421875 -5.28125 L 7.609375 -5.28125 L 7.609375 -4.296875 L 2.421875 -4.296875 L 2.421875 -0.984375 L 8.28125 -0.984375 L 8.28125 0 L 1.34375 0 Z M 1.34375 -9.5 "/></g></g></g><g fill="#000000" fill-opacity="1"><g transform="translate(137.89036, 292.478302)"><g><path d="M 4.859375 -9.578125 L 5.859375 -9.578125 L 10.203125 0 L 9.046875 0 L 7.921875 -2.515625 L 2.75 -2.515625 L 1.625 0 L 0.53125 0 Z M 7.515625 -3.46875 L 5.34375 -8.328125 L 3.171875 -3.46875 Z M 7.515625 -3.46875 "/></g></g></g><g fill="#000000" fill-opacity="1"><g transform="translate(150.984583, 292.478302)"><g><path d="M 1.34375 -9.5 L 2.421875 -9.5 L 2.421875 -0.984375 L 7.765625 -0.984375 L 7.765625 0 L 1.34375 0 Z M 1.34375 -9.5 "/></g></g></g><g fill="#000000" fill-opacity="1"><g transform="translate(161.701963, 292.478302)"><g><path d="M 3.8125 -8.515625 L 0.609375 -8.515625 L 0.609375 -9.5 L 8.09375 -9.5 L 8.09375 -8.515625 L 4.890625 -8.515625 L 4.890625 0 L 3.8125 0 Z M 3.8125 -8.515625 "/></g></g></g><g fill="#000000" fill-opacity="1"><g transform="translate(172.772473, 292.478302)"><g><path d="M 1.34375 -9.5 L 2.421875 -9.5 L 2.421875 -5.28125 L 7.90625 -5.28125 L 7.90625 -9.5 L 8.96875 -9.5 L 8.96875 0 L 7.90625 0 L 7.90625 -4.28125 L 2.421875 -4.28125 L 2.421875 0 L 1.34375 0 Z M 1.34375 -9.5 "/></g></g></g><g fill="#000000" fill-opacity="1"><g transform="translate(185.459244, 292.478302)"><g/></g></g><g fill="#000000" fill-opacity="1"><g transform="translate(191.898296, 292.478302)"><g><path d="M 5.6875 0.15625 C 5 0.15625 4.363281 0.03125 3.78125 -0.21875 C 3.207031 -0.46875 2.707031 -0.8125 2.28125 -1.25 C 1.851562 -1.695312 1.519531 -2.21875 1.28125 -2.8125 C 1.039062 -3.40625 0.921875 -4.039062 0.921875 -4.71875 L 0.921875 -4.75 C 0.921875 -5.414062 1.039062 -6.046875 1.28125 -6.640625 C 1.519531 -7.242188 1.851562 -7.769531 2.28125 -8.21875 C 2.707031 -8.664062 3.210938 -9.019531 3.796875 -9.28125 C 4.390625 -9.539062 5.035156 -9.671875 5.734375 -9.671875 C 6.160156 -9.671875 6.546875 -9.632812 6.890625 -9.5625 C 7.242188 -9.488281 7.570312 -9.382812 7.875 -9.25 C 8.175781 -9.125 8.453125 -8.96875 8.703125 -8.78125 C 8.953125 -8.59375 9.195312 -8.382812 9.4375 -8.15625 L 8.703125 -7.375 C 8.296875 -7.75 7.859375 -8.054688 7.390625 -8.296875 C 6.921875 -8.546875 6.363281 -8.671875 5.71875 -8.671875 C 5.1875 -8.671875 4.695312 -8.570312 4.25 -8.375 C 3.800781 -8.175781 3.410156 -7.898438 3.078125 -7.546875 C 2.753906 -7.191406 2.5 -6.773438 2.3125 -6.296875 C 2.125 -5.828125 2.03125 -5.320312 2.03125 -4.78125 L 2.03125 -4.75 C 2.03125 -4.195312 2.125 -3.679688 2.3125 -3.203125 C 2.5 -2.734375 2.753906 -2.320312 3.078125 -1.96875 C 3.410156 -1.613281 3.800781 -1.332031 4.25 -1.125 C 4.695312 -0.925781 5.1875 -0.828125 5.71875 -0.828125 C 6.363281 -0.828125 6.921875 -0.945312 7.390625 -1.1875 C 7.867188 -1.425781 8.332031 -1.765625 8.78125 -2.203125 L 9.484375 -1.5 C 9.242188 -1.25 8.988281 -1.019531 8.71875 -0.8125 C 8.457031 -0.613281 8.171875 -0.441406 7.859375 -0.296875 C 7.554688 -0.148438 7.226562 -0.0390625 6.875 0.03125 C 6.519531 0.113281 6.125 0.15625 5.6875 0.15625 Z M 5.6875 0.15625 "/></g></g></g><g fill="#000000" fill-opacity="1"><g transform="translate(204.340586, 292.478302)"><g><path d="M 1.34375 -9.5 L 8.21875 -9.5 L 8.21875 -8.53125 L 2.421875 -8.53125 L 2.421875 -5.28125 L 7.609375 -5.28125 L 7.609375 -4.296875 L 2.421875 -4.296875 L 2.421875 -0.984375 L 8.28125 -0.984375 L 8.28125 0 L 1.34375 0 Z M 1.34375 -9.5 "/></g></g></g><g fill="#000000" fill-opacity="1"><g transform="translate(215.804962, 292.478302)"><g><path d="M 1.34375 -9.5 L 2.34375 -9.5 L 8.34375 -1.890625 L 8.34375 -9.5 L 9.375 -9.5 L 9.375 0 L 8.53125 0 L 2.390625 -7.796875 L 2.390625 0 L 1.34375 0 Z M 1.34375 -9.5 "/></g></g></g><g fill="#000000" fill-opacity="1"><g transform="translate(228.899188, 292.478302)"><g><path d="M 3.8125 -8.515625 L 0.609375 -8.515625 L 0.609375 -9.5 L 8.09375 -9.5 L 8.09375 -8.515625 L 4.890625 -8.515625 L 4.890625 0 L 3.8125 0 Z M 3.8125 -8.515625 "/></g></g></g><g fill="#000000" fill-opacity="1"><g transform="translate(239.969698, 292.478302)"><g><path d="M 1.34375 -9.5 L 8.21875 -9.5 L 8.21875 -8.53125 L 2.421875 -8.53125 L 2.421875 -5.28125 L 7.609375 -5.28125 L 7.609375 -4.296875 L 2.421875 -4.296875 L 2.421875 -0.984375 L 8.28125 -0.984375 L 8.28125 0 L 1.34375 0 Z M 1.34375 -9.5 "/></g></g></g><g fill="#000000" fill-opacity="1"><g transform="translate(251.43408, 292.478302)"><g><path d="M 1.34375 -9.5 L 5.4375 -9.5 C 6.019531 -9.5 6.539062 -9.414062 7 -9.25 C 7.457031 -9.082031 7.835938 -8.847656 8.140625 -8.546875 C 8.367188 -8.316406 8.546875 -8.039062 8.671875 -7.71875 C 8.796875 -7.40625 8.859375 -7.0625 8.859375 -6.6875 L 8.859375 -6.65625 C 8.859375 -6.257812 8.796875 -5.90625 8.671875 -5.59375 C 8.546875 -5.28125 8.367188 -5.003906 8.140625 -4.765625 C 7.910156 -4.535156 7.632812 -4.347656 7.3125 -4.203125 C 7 -4.054688 6.65625 -3.953125 6.28125 -3.890625 L 9.203125 0 L 7.890625 0 L 5.125 -3.6875 L 2.421875 -3.6875 L 2.421875 0 L 1.34375 0 Z M 5.34375 -4.65625 C 5.6875 -4.65625 6.007812 -4.695312 6.3125 -4.78125 C 6.613281 -4.875 6.867188 -5.003906 7.078125 -5.171875 C 7.296875 -5.347656 7.46875 -5.554688 7.59375 -5.796875 C 7.71875 -6.035156 7.78125 -6.304688 7.78125 -6.609375 L 7.78125 -6.640625 C 7.78125 -7.222656 7.566406 -7.679688 7.140625 -8.015625 C 6.710938 -8.347656 6.113281 -8.515625 5.34375 -8.515625 L 2.421875 -8.515625 L 2.421875 -4.65625 Z M 5.34375 -4.65625 "/></g></g></g></svg>